<svg width="91" height="90" viewBox="0 0 91 90" fill="none" xmlns="http://www.w3.org/2000/svg">
<path d="M39.5278 16.1147H30.1851C28.5873 16.1147 27.292 17.41 27.292 19.0079V47.2506C27.292 48.8484 28.5873 50.1437 30.1851 50.1437H73.4163C75.0142 50.1437 76.3093 48.8484 76.3093 47.2506V40.5147" stroke="#757575" stroke-width="2" stroke-miterlimit="22.9256" stroke-linecap="round" stroke-linejoin="round"/>
<path d="M18.5394 26.5103H10.4863" stroke="#757575" stroke-width="2" stroke-miterlimit="22.9256" stroke-linecap="round" stroke-linejoin="round"/>
<path d="M18.5395 33.5127H6.46191" stroke="#757575" stroke-width="2" stroke-miterlimit="22.9256" stroke-linecap="round" stroke-linejoin="round"/>
<path d="M18.5395 40.5151H2.43359" stroke="#757575" stroke-width="2" stroke-miterlimit="22.9256" stroke-linecap="round" stroke-linejoin="round"/>
<path d="M57.761 64.4304L74.667 60.3466C79.8252 59.1995 81.1651 65.3788 76.9843 66.8897C74.1103 67.8946 61.1805 73.4161 52.2789 76.7536C45.876 79.1544 43.9397 79.4754 37.1965 79.1537L26.9457 78.6648L25.0983 81.601C24.0857 83.2104 23.6325 83.5135 21.3722 83.5135C15.7582 83.5135 10.6312 83.5135 5.0174 83.5135C2.95097 83.5135 1.74954 81.185 2.85095 79.2043L7.51519 70.9669C16.8296 53.877 32.9251 62.2541 40.8309 61.5238C42.5225 61.3675 52.7825 60.1991 54.4745 60.043C56.24 59.8799 57.8141 61.2406 57.9723 63.0668C58.1305 64.8931 56.6847 65.976 55.0496 66.6839C50.7623 68.5401 46.0985 70.159 42.1865 71.0776" stroke="#5D5D5D" stroke-width="2" stroke-miterlimit="2.6131" stroke-linecap="round" stroke-linejoin="round"/>
<path fill-rule="evenodd" clip-rule="evenodd" d="M42.4398 6.48633C40.842 6.48633 39.5469 7.78163 39.5469 9.37944V37.6222C39.5469 39.22 40.8422 40.5153 42.4398 40.5153H85.6711C87.2689 40.5153 88.564 39.22 88.564 37.6222V9.37944C88.564 7.78163 87.2687 6.48633 85.6711 6.48633H42.4398Z" stroke="#5D5D5D" stroke-width="2" stroke-miterlimit="22.9256" stroke-linecap="round" stroke-linejoin="round"/>
<path d="M88.5668 13.1895L66.4397 29.9194C65.7251 30.4588 64.887 30.7188 64.0558 30.7181C63.2247 30.7188 62.3864 30.4586 61.6719 29.9194L39.5469 13.2069" stroke="#5D5D5D" stroke-width="2" stroke-miterlimit="22.9256" stroke-linecap="round" stroke-linejoin="round"/>
<path d="M88.5651 33.6367L75.043 23.4141" stroke="#5D5D5D" stroke-width="2" stroke-miterlimit="22.9256" stroke-linecap="round" stroke-linejoin="round"/>
<path d="M39.5459 33.6365L53.0633 23.415" stroke="#5D5D5D" stroke-width="2" stroke-miterlimit="22.9256" stroke-linecap="round" stroke-linejoin="round"/>
</svg>
