<svg width="24" height="24" viewBox="0 0 24 24" fill="none" xmlns="http://www.w3.org/2000/svg">
<path d="M20.3988 6.40001V9.60001H16.7988" stroke="#3D2F17" stroke-width="1.5" stroke-linecap="round" stroke-linejoin="round"/>
<path d="M19.9996 9.336L19.1116 8.448C18.4622 7.11451 17.4511 5.99039 16.1936 5.20391C14.9361 4.41743 13.4828 4.00027 11.9996 4C10.5325 3.99864 9.0933 4.40074 7.83936 5.16231C6.58542 5.92388 5.56505 7.01561 4.88983 8.31808C4.21462 9.62056 3.91057 11.0836 4.01093 12.5473C4.1113 14.0109 4.61221 15.4188 5.45889 16.6169C6.30558 17.815 7.46542 18.7573 8.81158 19.3406C10.1577 19.9238 11.6384 20.1257 13.0915 19.9241C14.5447 19.7225 15.9145 19.1252 17.051 18.1975C18.1875 17.2697 19.0471 16.0474 19.5356 14.664" stroke="#3D2F17" stroke-width="1.5" stroke-linecap="round" stroke-linejoin="round"/>
</svg>
